M48
; DRILL file {KiCad 8.0.4} date 2024-08-14T20:41:28-0400
; FORMAT={-:-/ absolute / inch / decimal}
; #@! TF.CreationDate,2024-08-14T20:41:28-04:00
; #@! TF.GenerationSoftware,Kicad,Pcbnew,8.0.4
; #@! TF.FileFunction,Plated,1,2,PTH
FMAT,2
INCH
; #@! TA.AperFunction,Plated,PTH,ViaDrill
T1C0.0157
; #@! TA.AperFunction,Plated,PTH,ComponentDrill
T2C0.0236
; #@! TA.AperFunction,Plated,PTH,ComponentDrill
T3C0.0276
; #@! TA.AperFunction,Plated,PTH,ComponentDrill
T4C0.0394
; #@! TA.AperFunction,Plated,PTH,ComponentDrill
T5C0.0400
%
G90
G05
T1
X3.0285Y-1.6168
X3.0285Y-1.8568
X3.0285Y-2.0968
X3.0285Y-2.5768
X3.0285Y-2.8168
X3.0285Y-3.0568
X3.0285Y-3.2968
X3.0285Y-4.0168
X3.0285Y-4.2568
X3.0285Y-4.4968
X3.0285Y-4.7368
X3.0285Y-5.2168
X3.0285Y-5.4568
X3.0285Y-5.6968
X3.127Y-2.0682
X3.127Y-5.2482
X3.227Y-2.0682
X3.227Y-5.2482
X3.247Y-3.7682
X3.267Y-3.5782
X3.2685Y-1.6168
X3.2685Y-5.6968
X3.327Y-2.0682
X3.327Y-5.2482
X3.427Y-2.0682
X3.427Y-5.2482
X3.5085Y-1.6168
X3.5085Y-5.6968
X3.527Y-2.0682
X3.627Y-2.0682
X3.727Y-2.0682
X3.7485Y-1.6168
X3.7485Y-5.6968
X3.827Y-2.0682
X3.827Y-3.9182
X3.857Y-3.5582
X3.877Y-3.4082
X3.927Y-2.0682
X3.9885Y-1.6168
X3.9885Y-5.6968
X4.027Y-2.0682
X4.127Y-2.0682
X4.137Y-3.0782
X4.157Y-3.6582
X4.187Y-3.0782
X4.227Y-2.0682
X4.2285Y-1.6168
X4.2285Y-5.6968
X4.237Y-3.0782
X4.287Y-3.0782
X4.327Y-2.0682
X4.337Y-3.0782
X4.407Y-2.7482
X4.407Y-2.7982
X4.417Y-2.6882
X4.427Y-2.0682
X4.427Y-2.6182
X4.447Y-2.5682
X4.457Y-3.8582
X4.467Y-2.5082
X4.4685Y-1.6168
X4.4685Y-5.6968
X4.477Y-4.5982
X4.497Y-2.4582
X4.507Y-2.4082
X4.507Y-3.8582
X4.527Y-2.0682
X4.527Y-2.3682
X4.547Y-2.3182
X4.567Y-3.9382
X4.587Y-2.2682
X4.5955Y-3.4688
X4.627Y-2.0682
X4.667Y-2.8682
X4.6735Y-3.3958
X4.687Y-3.9282
X4.697Y-3.9782
X4.697Y-4.0482
X4.697Y-4.1182
X4.697Y-4.1882
X4.697Y-4.2382
X4.707Y-3.8282
X4.7085Y-1.6168
X4.7085Y-5.6968
X4.727Y-2.0682
X4.747Y-2.2682
X4.777Y-2.3182
X4.787Y-4.4082
X4.807Y-2.3682
X4.827Y-2.0682
X4.837Y-2.4082
X4.847Y-4.2882
X4.867Y-2.4582
X4.867Y-4.5782
X4.887Y-4.2482
X4.897Y-2.5182
X4.907Y-4.4082
X4.907Y-4.7782
X4.927Y-2.0682
X4.927Y-2.5782
X4.9485Y-1.6168
X4.9485Y-5.6968
X4.957Y-2.6282
X4.9755Y-4.2008
X4.987Y-3.9982
X4.9925Y-3.5808
X4.9965Y-3.1988
X4.997Y-2.6882
X4.997Y-3.3882
X5.027Y-2.0682
X5.0375Y-4.0888
X5.047Y-2.7482
X5.0475Y-4.2338
X5.077Y-2.7982
X5.087Y-4.4182
X5.097Y-4.5682
X5.117Y-3.7582
X5.1195Y-3.1682
X5.127Y-2.0682
X5.142Y-4.2932
X5.147Y-3.2082
X5.157Y-2.8682
X5.157Y-3.2482
X5.1655Y-3.5798
X5.167Y-3.7582
X5.167Y-3.9082
X5.1795Y-3.8708
X5.187Y-3.2882
X5.1885Y-1.6168
X5.1885Y-5.6968
X5.217Y-3.3282
X5.227Y-2.0682
X5.227Y-3.9882
X5.2415Y-4.0758
X5.247Y-2.6682
X5.267Y-3.3482
X5.267Y-4.2982
X5.297Y-2.6082
X5.3015Y-4.0918
X5.3076Y-4.2677
X5.327Y-2.0682
X5.347Y-2.5582
X5.3555Y-4.0918
X5.377Y-3.2882
X5.377Y-4.2982
X5.407Y-2.5082
X5.422Y-2.0682
X5.4285Y-1.6168
X5.4285Y-5.6968
X5.447Y-4.3282
X5.447Y-4.6877
X5.4554Y-3.9968
X5.457Y-2.4582
X5.4647Y-3.6339
X5.467Y-3.2932
X5.477Y-3.3882
X5.477Y-3.8282
X5.487Y-4.3582
X5.487Y-4.7082
X5.497Y-2.4082
X5.507Y-3.6982
X5.527Y-2.0682
X5.527Y-4.3857
X5.537Y-2.3482
X5.557Y-4.4182
X5.562Y-2.2882
X5.567Y-2.2332
X5.597Y-4.4482
X5.627Y-2.0682
X5.627Y-2.1882
X5.6685Y-1.6168
X5.6685Y-5.6968
X5.727Y-2.0682
X5.727Y-2.1882
X5.827Y-2.0682
X5.827Y-2.1882
X5.827Y-5.1182
X5.9085Y-1.6168
X5.9085Y-5.6968
X5.927Y-2.0682
X5.927Y-2.1882
X5.927Y-5.1182
X6.027Y-2.0682
X6.027Y-2.1882
X6.027Y-5.0582
X6.097Y-3.6982
X6.097Y-3.8182
X6.097Y-4.2182
X6.127Y-3.1082
X6.127Y-5.1082
X6.1485Y-1.6168
X6.1485Y-5.6968
X6.1763Y-2.1661
X6.202Y-4.2432
X6.202Y-4.4682
X6.227Y-5.1082
X6.252Y-4.2432
X6.277Y-4.4682
X6.347Y-3.1582
X6.3885Y-1.6168
X6.3885Y-5.6968
X6.537Y-3.7682
X6.537Y-4.0982
X6.557Y-4.9382
X6.6285Y-1.6168
X6.6285Y-5.6968
X6.727Y-2.0882
X6.727Y-5.2582
X6.817Y-3.6982
X6.817Y-3.7682
X6.827Y-2.0782
X6.827Y-5.2582
X6.867Y-2.5282
X6.8685Y-1.6168
X6.8685Y-5.6968
X6.957Y-3.3182
X6.957Y-3.4682
X7.027Y-2.0882
X7.1085Y-1.6168
X7.1085Y-1.8568
X7.1085Y-2.0968
X7.1085Y-2.5768
X7.1085Y-2.8168
X7.1085Y-3.0568
X7.1085Y-3.2968
X7.1085Y-3.5368
X7.1085Y-3.7768
X7.1085Y-4.0168
X7.1085Y-4.2568
X7.1085Y-4.4968
X7.1085Y-4.7368
X7.1085Y-5.2168
X7.1085Y-5.4568
X7.1085Y-5.6968
T3
X3.1265Y-1.942
X3.1265Y-1.9932
X3.127Y-5.3426
X3.127Y-5.3938
X3.227Y-1.942
X3.227Y-1.9932
X3.227Y-5.3432
X3.227Y-5.3944
X3.327Y-1.942
X3.327Y-1.9932
X3.327Y-5.3426
X3.327Y-5.3938
X3.427Y-1.9414
X3.427Y-1.9926
X3.427Y-5.3426
X3.427Y-5.3938
X3.527Y-1.942
X3.527Y-1.9932
X3.527Y-5.3432
X3.527Y-5.3944
X3.627Y-1.9414
X3.627Y-1.9926
X3.627Y-5.3426
X3.627Y-5.3938
X3.727Y-1.9414
X3.727Y-1.9926
X3.727Y-5.3432
X3.727Y-5.3944
X3.827Y-1.9414
X3.827Y-1.9926
X3.827Y-5.3426
X3.827Y-5.3938
X3.927Y-1.9414
X3.927Y-1.9926
X3.927Y-5.3432
X3.927Y-5.3944
X4.027Y-1.942
X4.027Y-1.9932
X4.027Y-5.3432
X4.027Y-5.3944
X4.127Y-1.9426
X4.127Y-1.9938
X4.127Y-5.3432
X4.127Y-5.3944
X4.227Y-1.9426
X4.227Y-1.9938
X4.227Y-5.3426
X4.227Y-5.3938
X4.327Y-1.9414
X4.327Y-1.9926
X4.327Y-5.3432
X4.327Y-5.3944
X4.427Y-1.9426
X4.427Y-1.9938
X4.427Y-5.342
X4.427Y-5.3932
X4.527Y-1.942
X4.527Y-1.9932
X4.527Y-5.342
X4.527Y-5.3932
X4.627Y-1.942
X4.627Y-1.9932
X4.627Y-5.342
X4.627Y-5.3932
X4.727Y-1.9414
X4.727Y-1.9926
X4.727Y-5.342
X4.727Y-5.3932
X4.827Y-1.9426
X4.827Y-1.9938
X4.827Y-5.342
X4.827Y-5.3932
X4.927Y-1.9426
X4.927Y-1.9938
X4.927Y-5.3426
X4.927Y-5.3938
X5.027Y-1.9426
X5.027Y-1.9938
X5.027Y-5.342
X5.027Y-5.3932
X5.127Y-1.9414
X5.127Y-1.9926
X5.127Y-5.3426
X5.127Y-5.3938
X5.227Y-1.942
X5.227Y-1.9932
X5.227Y-5.3426
X5.227Y-5.3938
X5.327Y-1.9426
X5.327Y-1.9938
X5.327Y-5.3426
X5.327Y-5.3938
X5.427Y-1.9426
X5.427Y-1.9938
X5.427Y-5.3432
X5.427Y-5.3944
X5.527Y-1.942
X5.527Y-1.9932
X5.527Y-5.3426
X5.527Y-5.3938
X5.627Y-1.9426
X5.627Y-1.9938
X5.627Y-5.3426
X5.627Y-5.3938
X5.727Y-1.9426
X5.727Y-1.9938
X5.727Y-5.3426
X5.727Y-5.3938
X5.827Y-1.9426
X5.827Y-1.9938
X5.827Y-5.3426
X5.827Y-5.3938
X5.927Y-1.9426
X5.927Y-1.9938
X5.927Y-5.3426
X5.927Y-5.3938
X6.027Y-1.942
X6.027Y-1.9932
X6.027Y-5.3432
X6.027Y-5.3944
X6.127Y-1.942
X6.127Y-1.9932
X6.127Y-5.3426
X6.127Y-5.3938
X6.227Y-1.9426
X6.227Y-1.9938
X6.227Y-5.3432
X6.227Y-5.3944
X6.327Y-1.9426
X6.327Y-1.9938
X6.327Y-5.3432
X6.327Y-5.3944
X6.427Y-1.9426
X6.427Y-1.9938
X6.427Y-5.3426
X6.427Y-5.3938
X6.527Y-1.9426
X6.527Y-1.9938
X6.527Y-5.3426
X6.527Y-5.3938
X6.627Y-1.9426
X6.627Y-1.9938
X6.627Y-5.3432
X6.627Y-5.3944
X6.727Y-1.9426
X6.727Y-1.9938
X6.727Y-5.3426
X6.727Y-5.3938
X6.827Y-1.9426
X6.827Y-1.9938
X6.827Y-5.3432
X6.827Y-5.3944
X6.927Y-1.9426
X6.927Y-1.9938
X6.927Y-5.3426
X6.927Y-5.3938
X7.027Y-1.942
X7.027Y-1.9932
X7.027Y-5.3432
X7.027Y-5.3944
T4
X3.127Y-1.7182
X3.1285Y-5.6168
X3.227Y-1.7182
X3.2285Y-5.6168
X3.327Y-1.7182
X3.3285Y-5.6168
X3.427Y-1.7182
X3.4285Y-5.6168
X3.527Y-1.7182
X3.5285Y-5.6168
X3.627Y-1.7182
X3.6285Y-5.6168
X3.727Y-1.7182
X3.7285Y-5.6168
X3.827Y-1.7182
X3.8285Y-5.6168
X3.927Y-1.7182
X3.9285Y-5.6168
X4.027Y-1.7182
X4.0285Y-5.6168
X4.127Y-1.7182
X4.1285Y-5.6168
X4.227Y-1.7182
X4.2285Y-5.6168
X4.327Y-1.7182
X4.3285Y-5.6168
X4.427Y-1.7182
X4.4285Y-5.6168
X4.527Y-1.7182
X4.5285Y-5.6168
X4.627Y-1.7182
X4.6285Y-5.6168
X4.727Y-1.7182
X4.7285Y-5.6168
X4.827Y-1.7182
X4.8285Y-5.6168
X4.927Y-1.7182
X4.9285Y-5.6168
X5.027Y-1.7182
X5.0285Y-5.6168
X5.127Y-1.7182
X5.1285Y-5.6168
X5.227Y-1.7182
X5.2285Y-5.6168
X5.327Y-1.7182
X5.3285Y-5.6168
X5.397Y-4.5382
X5.427Y-1.7182
X5.4285Y-5.6168
X5.497Y-4.5382
X5.527Y-1.7182
X5.5285Y-5.6168
X5.597Y-4.5382
X5.627Y-1.7182
X5.6285Y-5.6168
X5.727Y-1.7182
X5.7285Y-5.6168
X5.827Y-1.7182
X5.8285Y-5.6168
X5.927Y-1.7182
X5.9285Y-5.6168
X6.027Y-1.7182
X6.0285Y-5.6168
X6.127Y-1.7182
X6.1285Y-5.6168
X6.227Y-1.7182
X6.2285Y-5.6168
X6.327Y-1.7182
X6.3285Y-5.6168
X6.427Y-1.7182
X6.4285Y-5.6168
X6.527Y-1.7182
X6.5285Y-5.6168
X6.627Y-1.7182
X6.6285Y-5.6168
X6.727Y-1.7182
X6.7285Y-5.6168
X6.827Y-1.7182
X6.8285Y-5.6168
X6.927Y-1.7182
X6.9285Y-5.6168
X7.027Y-1.7182
X7.0285Y-5.6168
T5
X6.1255Y-2.819
X6.1255Y-2.929
X6.2255Y-2.811
X6.2255Y-2.921
X6.3255Y-2.819
X6.3255Y-2.929
X6.4255Y-2.811
X6.4255Y-2.921
X6.5255Y-2.819
X6.5255Y-2.929
T2
G00X3.0255Y-3.4981
M15
G01X2.994Y-3.4981
M16
G05
G00X3.0255Y-3.8383
M15
G01X2.994Y-3.8383
M16
G05
G00X3.1959Y-3.4981
M15
G01X3.1526Y-3.4981
M16
G05
G00X3.1959Y-3.8383
M15
G01X3.1526Y-3.8383
M16
G05
M30
