%TF.GenerationSoftware,KiCad,Pcbnew,8.0.4*%
%TF.CreationDate,2024-08-14T20:41:30-04:00*%
%TF.ProjectId,RP2040_Euro_Power,52503230-3430-45f4-9575-726f5f506f77,rev?*%
%TF.SameCoordinates,Original*%
%TF.FileFunction,Soldermask,Bot*%
%TF.FilePolarity,Negative*%
%FSLAX46Y46*%
G04 Gerber Fmt 4.6, Leading zero omitted, Abs format (unit mm)*
G04 Created by KiCad (PCBNEW 8.0.4) date 2024-08-14 20:41:30*
%MOMM*%
%LPD*%
G01*
G04 APERTURE LIST*
G04 Aperture macros list*
%AMFreePoly0*
4,1,19,0.500000,-0.750000,0.000000,-0.750000,0.000000,-0.744911,-0.071157,-0.744911,-0.207708,-0.704816,-0.327430,-0.627875,-0.420627,-0.520320,-0.479746,-0.390866,-0.500000,-0.250000,-0.500000,0.250000,-0.479746,0.390866,-0.420627,0.520320,-0.327430,0.627875,-0.207708,0.704816,-0.071157,0.744911,0.000000,0.744911,0.000000,0.750000,0.500000,0.750000,0.500000,-0.750000,0.500000,-0.750000,
$1*%
%AMFreePoly1*
4,1,19,0.000000,0.744911,0.071157,0.744911,0.207708,0.704816,0.327430,0.627875,0.420627,0.520320,0.479746,0.390866,0.500000,0.250000,0.500000,-0.250000,0.479746,-0.390866,0.420627,-0.520320,0.327430,-0.627875,0.207708,-0.704816,0.071157,-0.744911,0.000000,-0.744911,0.000000,-0.750000,-0.500000,-0.750000,-0.500000,0.750000,0.000000,0.750000,0.000000,0.744911,0.000000,0.744911,
$1*%
G04 Aperture macros list end*
%ADD10FreePoly0,270.000000*%
%ADD11C,1.000000*%
%ADD12FreePoly1,270.000000*%
%ADD13R,1.500000X1.000000*%
%ADD14O,2.003200X2.603200*%
%ADD15C,0.650000*%
%ADD16O,2.100000X1.000000*%
%ADD17O,1.800000X1.000000*%
%ADD18R,1.700000X1.700000*%
%ADD19O,1.700000X1.700000*%
G04 APERTURE END LIST*
D10*
%TO.C,JP180*%
X178487000Y-135717000D03*
D11*
X178487000Y-135717000D03*
D12*
X178487000Y-137017000D03*
D11*
X178487000Y-137017000D03*
%TD*%
D10*
%TO.C,JP179*%
X175947000Y-135702000D03*
D11*
X175947000Y-135702000D03*
D12*
X175947000Y-137002000D03*
D11*
X175947000Y-137002000D03*
%TD*%
D10*
%TO.C,JP178*%
X173407000Y-135717000D03*
D11*
X173407000Y-135717000D03*
D12*
X173407000Y-137017000D03*
D11*
X173407000Y-137017000D03*
%TD*%
D10*
%TO.C,JP177*%
X170867000Y-135702000D03*
D11*
X170867000Y-135702000D03*
D12*
X170867000Y-137002000D03*
D11*
X170867000Y-137002000D03*
%TD*%
D10*
%TO.C,JP176*%
X168327000Y-135717000D03*
D11*
X168327000Y-135717000D03*
D12*
X168327000Y-137017000D03*
D11*
X168327000Y-137017000D03*
%TD*%
D10*
%TO.C,JP175*%
X165787000Y-135702000D03*
D11*
X165787000Y-135702000D03*
D12*
X165787000Y-137002000D03*
D11*
X165787000Y-137002000D03*
%TD*%
D10*
%TO.C,JP174*%
X163247000Y-135702000D03*
D11*
X163247000Y-135702000D03*
D12*
X163247000Y-137002000D03*
D11*
X163247000Y-137002000D03*
%TD*%
D10*
%TO.C,JP173*%
X160707000Y-135717000D03*
D11*
X160707000Y-135717000D03*
D12*
X160707000Y-137017000D03*
D11*
X160707000Y-137017000D03*
%TD*%
D10*
%TO.C,JP172*%
X158167000Y-135717000D03*
D11*
X158167000Y-135717000D03*
D12*
X158167000Y-137017000D03*
D11*
X158167000Y-137017000D03*
%TD*%
D10*
%TO.C,JP171*%
X155627000Y-135702000D03*
D11*
X155627000Y-135702000D03*
D12*
X155627000Y-137002000D03*
D11*
X155627000Y-137002000D03*
%TD*%
D10*
%TO.C,JP170*%
X153087000Y-135717000D03*
D11*
X153087000Y-135717000D03*
D12*
X153087000Y-137017000D03*
D11*
X153087000Y-137017000D03*
%TD*%
D10*
%TO.C,JP169*%
X150547000Y-135702000D03*
D11*
X150547000Y-135702000D03*
D12*
X150547000Y-137002000D03*
D11*
X150547000Y-137002000D03*
%TD*%
D10*
%TO.C,JP168*%
X148007000Y-135702000D03*
D11*
X148007000Y-135702000D03*
D12*
X148007000Y-137002000D03*
D11*
X148007000Y-137002000D03*
%TD*%
D10*
%TO.C,JP167*%
X145467000Y-135702000D03*
D11*
X145467000Y-135702000D03*
D12*
X145467000Y-137002000D03*
D11*
X145467000Y-137002000D03*
%TD*%
D10*
%TO.C,JP166*%
X142927000Y-135702000D03*
D11*
X142927000Y-135702000D03*
D12*
X142927000Y-137002000D03*
D11*
X142927000Y-137002000D03*
%TD*%
D10*
%TO.C,JP165*%
X140387000Y-135702000D03*
D11*
X140387000Y-135702000D03*
D12*
X140387000Y-137002000D03*
D11*
X140387000Y-137002000D03*
%TD*%
D10*
%TO.C,JP164*%
X137847000Y-135717000D03*
D11*
X137847000Y-135717000D03*
D12*
X137847000Y-137017000D03*
D11*
X137847000Y-137017000D03*
%TD*%
D10*
%TO.C,JP163*%
X135307000Y-135702000D03*
D11*
X135307000Y-135702000D03*
D12*
X135307000Y-137002000D03*
D11*
X135307000Y-137002000D03*
%TD*%
D10*
%TO.C,JP162*%
X132767000Y-135702000D03*
D11*
X132767000Y-135702000D03*
D12*
X132767000Y-137002000D03*
D11*
X132767000Y-137002000D03*
%TD*%
D10*
%TO.C,JP161*%
X130227000Y-135702000D03*
D11*
X130227000Y-135702000D03*
D12*
X130227000Y-137002000D03*
D11*
X130227000Y-137002000D03*
%TD*%
D10*
%TO.C,JP160*%
X127687000Y-135687000D03*
D11*
X127687000Y-135687000D03*
D12*
X127687000Y-136987000D03*
D11*
X127687000Y-136987000D03*
%TD*%
D10*
%TO.C,JP159*%
X125147000Y-135702000D03*
D11*
X125147000Y-135702000D03*
D12*
X125147000Y-137002000D03*
D11*
X125147000Y-137002000D03*
%TD*%
D10*
%TO.C,JP158*%
X122607000Y-135687000D03*
D11*
X122607000Y-135687000D03*
D12*
X122607000Y-136987000D03*
D11*
X122607000Y-136987000D03*
%TD*%
D10*
%TO.C,JP157*%
X120067000Y-135687000D03*
D11*
X120067000Y-135687000D03*
D12*
X120067000Y-136987000D03*
D11*
X120067000Y-136987000D03*
%TD*%
D10*
%TO.C,JP156*%
X117527000Y-135687000D03*
D11*
X117527000Y-135687000D03*
D12*
X117527000Y-136987000D03*
D11*
X117527000Y-136987000D03*
%TD*%
D10*
%TO.C,JP155*%
X114987000Y-135687000D03*
D11*
X114987000Y-135687000D03*
D12*
X114987000Y-136987000D03*
D11*
X114987000Y-136987000D03*
%TD*%
D10*
%TO.C,JP154*%
X112447000Y-135687000D03*
D11*
X112447000Y-135687000D03*
D12*
X112447000Y-136987000D03*
D11*
X112447000Y-136987000D03*
%TD*%
D10*
%TO.C,JP153*%
X109907000Y-135717000D03*
D11*
X109907000Y-135717000D03*
D12*
X109907000Y-137017000D03*
D11*
X109907000Y-137017000D03*
%TD*%
D10*
%TO.C,JP152*%
X107367000Y-135702000D03*
D11*
X107367000Y-135702000D03*
D12*
X107367000Y-137002000D03*
D11*
X107367000Y-137002000D03*
%TD*%
D10*
%TO.C,JP151*%
X104827000Y-135717000D03*
D11*
X104827000Y-135717000D03*
D12*
X104827000Y-137017000D03*
D11*
X104827000Y-137017000D03*
%TD*%
D10*
%TO.C,JP150*%
X102287000Y-135717000D03*
D11*
X102287000Y-135717000D03*
D12*
X102287000Y-137017000D03*
D11*
X102287000Y-137017000D03*
%TD*%
D10*
%TO.C,JP149*%
X99747000Y-135717000D03*
D11*
X99747000Y-135717000D03*
D12*
X99747000Y-137017000D03*
D11*
X99747000Y-137017000D03*
%TD*%
D10*
%TO.C,JP148*%
X97207000Y-135702000D03*
D11*
X97207000Y-135702000D03*
D12*
X97207000Y-137002000D03*
D11*
X97207000Y-137002000D03*
%TD*%
D10*
%TO.C,JP147*%
X94667000Y-135717000D03*
D11*
X94667000Y-135717000D03*
D12*
X94667000Y-137017000D03*
D11*
X94667000Y-137017000D03*
%TD*%
D10*
%TO.C,JP146*%
X92127000Y-135702000D03*
D11*
X92127000Y-135702000D03*
D12*
X92127000Y-137002000D03*
D11*
X92127000Y-137002000D03*
%TD*%
D10*
%TO.C,JP145*%
X89587000Y-135717000D03*
D11*
X89587000Y-135717000D03*
D12*
X89587000Y-137017000D03*
D11*
X89587000Y-137017000D03*
%TD*%
D10*
%TO.C,JP144*%
X87047000Y-135702000D03*
D11*
X87047000Y-135702000D03*
D12*
X87047000Y-137002000D03*
D11*
X87047000Y-137002000D03*
%TD*%
D10*
%TO.C,JP143*%
X84507000Y-135702000D03*
D11*
X84507000Y-135702000D03*
D12*
X84507000Y-137002000D03*
D11*
X84507000Y-137002000D03*
%TD*%
D10*
%TO.C,JP142*%
X81967000Y-135717000D03*
D11*
X81967000Y-135717000D03*
D12*
X81967000Y-137017000D03*
D11*
X81967000Y-137017000D03*
%TD*%
D10*
%TO.C,JP141*%
X79427000Y-135702000D03*
D11*
X79427000Y-135702000D03*
D12*
X79427000Y-137002000D03*
D11*
X79427000Y-137002000D03*
%TD*%
D10*
%TO.C,JP140*%
X178487000Y-49327000D03*
D11*
X178487000Y-49327000D03*
D12*
X178487000Y-50627000D03*
D11*
X178487000Y-50627000D03*
%TD*%
D10*
%TO.C,JP139*%
X175947000Y-49342000D03*
D11*
X175947000Y-49342000D03*
D12*
X175947000Y-50642000D03*
D11*
X175947000Y-50642000D03*
%TD*%
D10*
%TO.C,JP138*%
X173407000Y-49342000D03*
D11*
X173407000Y-49342000D03*
D12*
X173407000Y-50642000D03*
D11*
X173407000Y-50642000D03*
%TD*%
D10*
%TO.C,JP137*%
X170867000Y-49342000D03*
D11*
X170867000Y-49342000D03*
D12*
X170867000Y-50642000D03*
D11*
X170867000Y-50642000D03*
%TD*%
D10*
%TO.C,JP136*%
X168327000Y-49342000D03*
D11*
X168327000Y-49342000D03*
D12*
X168327000Y-50642000D03*
D11*
X168327000Y-50642000D03*
%TD*%
D10*
%TO.C,JP135*%
X165787000Y-49342000D03*
D11*
X165787000Y-49342000D03*
D12*
X165787000Y-50642000D03*
D11*
X165787000Y-50642000D03*
%TD*%
D10*
%TO.C,JP134*%
X163247000Y-49342000D03*
D11*
X163247000Y-49342000D03*
D12*
X163247000Y-50642000D03*
D11*
X163247000Y-50642000D03*
%TD*%
D10*
%TO.C,JP133*%
X160707000Y-49342000D03*
D11*
X160707000Y-49342000D03*
D12*
X160707000Y-50642000D03*
D11*
X160707000Y-50642000D03*
%TD*%
D10*
%TO.C,JP132*%
X158167000Y-49342000D03*
D11*
X158167000Y-49342000D03*
D12*
X158167000Y-50642000D03*
D11*
X158167000Y-50642000D03*
%TD*%
D10*
%TO.C,JP131*%
X155627000Y-49327000D03*
D11*
X155627000Y-49327000D03*
D12*
X155627000Y-50627000D03*
D11*
X155627000Y-50627000D03*
%TD*%
%TO.C,JP130*%
X153087000Y-50627000D03*
D13*
X153087000Y-50627000D03*
D11*
X153087000Y-49327000D03*
D13*
X153087000Y-49327000D03*
%TD*%
D11*
%TO.C,JP129*%
X150547000Y-50642000D03*
D13*
X150547000Y-50642000D03*
D11*
X150547000Y-49342000D03*
D13*
X150547000Y-49342000D03*
%TD*%
D11*
%TO.C,JP128*%
X148007000Y-50642000D03*
D13*
X148007000Y-50642000D03*
D11*
X148007000Y-49342000D03*
D13*
X148007000Y-49342000D03*
%TD*%
D11*
%TO.C,JP127*%
X145467000Y-50642000D03*
D13*
X145467000Y-50642000D03*
D11*
X145467000Y-49342000D03*
D13*
X145467000Y-49342000D03*
%TD*%
D10*
%TO.C,JP126*%
X142927000Y-49342000D03*
D11*
X142927000Y-49342000D03*
D12*
X142927000Y-50642000D03*
D11*
X142927000Y-50642000D03*
%TD*%
D10*
%TO.C,JP125*%
X140387000Y-49327000D03*
D11*
X140387000Y-49327000D03*
D12*
X140387000Y-50627000D03*
D11*
X140387000Y-50627000D03*
%TD*%
D10*
%TO.C,JP124*%
X137847000Y-49342000D03*
D11*
X137847000Y-49342000D03*
D12*
X137847000Y-50642000D03*
D11*
X137847000Y-50642000D03*
%TD*%
D10*
%TO.C,JP123*%
X135307000Y-49342000D03*
D11*
X135307000Y-49342000D03*
D12*
X135307000Y-50642000D03*
D11*
X135307000Y-50642000D03*
%TD*%
D10*
%TO.C,JP122*%
X132767000Y-49327000D03*
D11*
X132767000Y-49327000D03*
D12*
X132767000Y-50627000D03*
D11*
X132767000Y-50627000D03*
%TD*%
D10*
%TO.C,JP121*%
X130227000Y-49312000D03*
D11*
X130227000Y-49312000D03*
D12*
X130227000Y-50612000D03*
D11*
X130227000Y-50612000D03*
%TD*%
D10*
%TO.C,JP120*%
X127687000Y-49342000D03*
D11*
X127687000Y-49342000D03*
D12*
X127687000Y-50642000D03*
D11*
X127687000Y-50642000D03*
%TD*%
D10*
%TO.C,JP119*%
X125147000Y-49342000D03*
D11*
X125147000Y-49342000D03*
D12*
X125147000Y-50642000D03*
D11*
X125147000Y-50642000D03*
%TD*%
D10*
%TO.C,JP118*%
X122607000Y-49342000D03*
D11*
X122607000Y-49342000D03*
D12*
X122607000Y-50642000D03*
D11*
X122607000Y-50642000D03*
%TD*%
D10*
%TO.C,JP117*%
X120067000Y-49312000D03*
D11*
X120067000Y-49312000D03*
D12*
X120067000Y-50612000D03*
D11*
X120067000Y-50612000D03*
%TD*%
D10*
%TO.C,JP116*%
X117527000Y-49327000D03*
D11*
X117527000Y-49327000D03*
D12*
X117527000Y-50627000D03*
D11*
X117527000Y-50627000D03*
%TD*%
D10*
%TO.C,JP115*%
X114987000Y-49327000D03*
D11*
X114987000Y-49327000D03*
D12*
X114987000Y-50627000D03*
D11*
X114987000Y-50627000D03*
%TD*%
D10*
%TO.C,JP114*%
X112447000Y-49342000D03*
D11*
X112447000Y-49342000D03*
D12*
X112447000Y-50642000D03*
D11*
X112447000Y-50642000D03*
%TD*%
D10*
%TO.C,JP113*%
X109907000Y-49312000D03*
D11*
X109907000Y-49312000D03*
D12*
X109907000Y-50612000D03*
D11*
X109907000Y-50612000D03*
%TD*%
D10*
%TO.C,JP112*%
X107367000Y-49342000D03*
D11*
X107367000Y-49342000D03*
D12*
X107367000Y-50642000D03*
D11*
X107367000Y-50642000D03*
%TD*%
D10*
%TO.C,JP111*%
X104827000Y-49342000D03*
D11*
X104827000Y-49342000D03*
D12*
X104827000Y-50642000D03*
D11*
X104827000Y-50642000D03*
%TD*%
D10*
%TO.C,JP110*%
X102287000Y-49327000D03*
D11*
X102287000Y-49327000D03*
D12*
X102287000Y-50627000D03*
D11*
X102287000Y-50627000D03*
%TD*%
D10*
%TO.C,JP109*%
X99747000Y-49312000D03*
D11*
X99747000Y-49312000D03*
D12*
X99747000Y-50612000D03*
D11*
X99747000Y-50612000D03*
%TD*%
D10*
%TO.C,JP108*%
X97207000Y-49312000D03*
D11*
X97207000Y-49312000D03*
D12*
X97207000Y-50612000D03*
D11*
X97207000Y-50612000D03*
%TD*%
D10*
%TO.C,JP107*%
X94667000Y-49312000D03*
D11*
X94667000Y-49312000D03*
D12*
X94667000Y-50612000D03*
D11*
X94667000Y-50612000D03*
%TD*%
D10*
%TO.C,JP106*%
X92127000Y-49312000D03*
D11*
X92127000Y-49312000D03*
D12*
X92127000Y-50612000D03*
D11*
X92127000Y-50612000D03*
%TD*%
D10*
%TO.C,JP105*%
X89587000Y-49327000D03*
D11*
X89587000Y-49327000D03*
D12*
X89587000Y-50627000D03*
D11*
X89587000Y-50627000D03*
%TD*%
D10*
%TO.C,JP104*%
X87047000Y-49312000D03*
D11*
X87047000Y-49312000D03*
D12*
X87047000Y-50612000D03*
D11*
X87047000Y-50612000D03*
%TD*%
D10*
%TO.C,JP103*%
X84507000Y-49327000D03*
D11*
X84507000Y-49327000D03*
D12*
X84507000Y-50627000D03*
D11*
X84507000Y-50627000D03*
%TD*%
D10*
%TO.C,JP102*%
X81967000Y-49327000D03*
D11*
X81967000Y-49327000D03*
D12*
X81967000Y-50627000D03*
D11*
X81967000Y-50627000D03*
%TD*%
D10*
%TO.C,JP101*%
X79412000Y-49327000D03*
D11*
X79412000Y-49327000D03*
D12*
X79412000Y-50627000D03*
D11*
X79412000Y-50627000D03*
%TD*%
D14*
%TO.C,J3*%
X155587000Y-74595625D03*
X155587000Y-71401625D03*
X158127000Y-74392425D03*
X158127000Y-71198425D03*
X160667000Y-74595625D03*
X160667000Y-71401625D03*
X163207000Y-74392425D03*
X163207000Y-71198425D03*
X165747000Y-74595625D03*
X165747000Y-71401625D03*
%TD*%
D15*
%TO.C,J4*%
X80127000Y-90282000D03*
X80127000Y-96062000D03*
D16*
X80627000Y-88852000D03*
D17*
X76447000Y-88852000D03*
D16*
X80627000Y-97492000D03*
D17*
X76447000Y-97492000D03*
%TD*%
D18*
%TO.C,J5*%
X137085000Y-115270000D03*
D19*
X139625000Y-115270000D03*
X142165000Y-115270000D03*
%TD*%
D18*
%TO.C,J1*%
X79427000Y-43642000D03*
D19*
X81967000Y-43642000D03*
X84507000Y-43642000D03*
X87047000Y-43642000D03*
X89587000Y-43642000D03*
X92127000Y-43642000D03*
X94667000Y-43642000D03*
X97207000Y-43642000D03*
X99747000Y-43642000D03*
X102287000Y-43642000D03*
X104827000Y-43642000D03*
X107367000Y-43642000D03*
X109907000Y-43642000D03*
X112447000Y-43642000D03*
X114987000Y-43642000D03*
X117527000Y-43642000D03*
X120067000Y-43642000D03*
X122607000Y-43642000D03*
X125147000Y-43642000D03*
X127687000Y-43642000D03*
X130227000Y-43642000D03*
X132767000Y-43642000D03*
X135307000Y-43642000D03*
X137847000Y-43642000D03*
X140387000Y-43642000D03*
X142927000Y-43642000D03*
X145467000Y-43642000D03*
X148007000Y-43642000D03*
X150547000Y-43642000D03*
X153087000Y-43642000D03*
X155627000Y-43642000D03*
X158167000Y-43642000D03*
X160707000Y-43642000D03*
X163247000Y-43642000D03*
X165787000Y-43642000D03*
X168327000Y-43642000D03*
X170867000Y-43642000D03*
X173407000Y-43642000D03*
X175947000Y-43642000D03*
X178487000Y-43642000D03*
%TD*%
D18*
%TO.C,J2*%
X79465000Y-142667000D03*
D19*
X82005000Y-142667000D03*
X84545000Y-142667000D03*
X87085000Y-142667000D03*
X89625000Y-142667000D03*
X92165000Y-142667000D03*
X94705000Y-142667000D03*
X97245000Y-142667000D03*
X99785000Y-142667000D03*
X102325000Y-142667000D03*
X104865000Y-142667000D03*
X107405000Y-142667000D03*
X109945000Y-142667000D03*
X112485000Y-142667000D03*
X115025000Y-142667000D03*
X117565000Y-142667000D03*
X120105000Y-142667000D03*
X122645000Y-142667000D03*
X125185000Y-142667000D03*
X127725000Y-142667000D03*
X130265000Y-142667000D03*
X132805000Y-142667000D03*
X135345000Y-142667000D03*
X137885000Y-142667000D03*
X140425000Y-142667000D03*
X142965000Y-142667000D03*
X145505000Y-142667000D03*
X148045000Y-142667000D03*
X150585000Y-142667000D03*
X153125000Y-142667000D03*
X155665000Y-142667000D03*
X158205000Y-142667000D03*
X160745000Y-142667000D03*
X163285000Y-142667000D03*
X165825000Y-142667000D03*
X168365000Y-142667000D03*
X170905000Y-142667000D03*
X173445000Y-142667000D03*
X175985000Y-142667000D03*
X178525000Y-142667000D03*
%TD*%
M02*
